<svg id="Calque_1" data-name="Calque 1" xmlns="http://www.w3.org/2000/svg" viewBox="0 0 582.39 582.39"><defs><style>.cls-1{fill:#e84d17;}.cls-2{fill:#fff;}</style></defs><title>Rec - infinity</title><path class="cls-1" d="M999.6,708.61c160.78-.06,291.3,130.31,291.35,291s-130.28,291.3-291,291.36-291.31-130.28-291.37-291S838.87,708.66,999.6,708.61Zm112.21,175.57c-50,.08-93.39,31.2-108.76,77.79-2.57,7.79-7.5,18.38-.2,22.43,8.84,4.91,11.47-7.41,15.56-13.1,22-30.57,65.29-41.2,101.65-24.5,32.26,14.8,53.12,58.49,44.29,92.67-8.64,33.45-27.93,56.4-62.95,63.68-5,1-8.19,3.26-8.42,8.46-.27,6.22,4.18,7,8.89,6.89,11-.17,22.32,1.08,33-1,60-11.5,99.35-67.94,92.22-134.25C1221.52,931.53,1171.06,881.47,1111.81,884.18ZM888.94,1118.72c11.95,1.11,26-1.32,39.25-7,36.44-15.53,61.47-41.36,71-80.58,1.07-4.41,2.77-10.72-2.53-13.25-5.75-2.74-8.52,3.18-11.53,6.94-1,1.26-1.4,3-2.32,4.33C960.31,1062,916.35,1073.4,879.14,1056c-33.85-15.84-52.71-59.17-42.75-95.92,8.67-32,28.12-52.43,60.43-60.1,5.4-1.28,9.69-2.74,9.66-9,0-7.7-6.17-6.57-10.82-6.57-10.46,0-21.21-1-31.32,1.06-60.23,12-98.47,68.28-92.16,134.52C777.19,1072.7,830.2,1118.52,888.94,1118.72Z" transform="translate(-708.56 -708.61)"/><path class="cls-2" d="M1111.81,884.18c59.25-2.71,109.71,47.35,115.27,99.11,7.13,66.31-32.19,122.75-92.22,134.25-10.67,2-22,.79-33,1-4.71.07-9.16-.67-8.89-6.89.23-5.2,3.45-7.43,8.42-8.46,35-7.28,54.31-30.23,62.95-63.68,8.83-34.18-12-77.87-44.29-92.67-36.36-16.7-79.65-6.07-101.65,24.5-4.09,5.69-6.72,18-15.56,13.1-7.3-4-2.37-14.64.2-22.43C1018.42,915.38,1061.81,884.26,1111.81,884.18Z" transform="translate(-708.56 -708.61)"/><path class="cls-2" d="M888.94,1118.72c-58.74-.2-111.75-46-116.76-98.73-6.31-66.24,31.93-122.49,92.16-134.52,10.11-2,20.86-1.05,31.32-1.06,4.65,0,10.79-1.13,10.82,6.57,0,6.25-4.26,7.71-9.66,9-32.31,7.67-51.76,28.12-60.43,60.1-10,36.75,8.9,80.08,42.75,95.92,37.21,17.41,81.17,6,103.65-26.81.92-1.34,1.32-3.07,2.32-4.33,3-3.76,5.78-9.68,11.53-6.94,5.3,2.53,3.6,8.84,2.53,13.25-9.51,39.22-34.54,65-71,80.58C914.9,1117.4,900.89,1119.83,888.94,1118.72Z" transform="translate(-708.56 -708.61)"/></svg>