<svg id="Calque_1" data-name="Calque 1" xmlns="http://www.w3.org/2000/svg" viewBox="0 0 1592.14 378.12"><defs><style>.cls-1{fill:#09274d;}.cls-2{fill:#e84d17;}.cls-3{fill:#fefefe;}.cls-4{fill:#fdf7f4;}.cls-5{fill:#0b284e;}.cls-6{fill:#0a284d;}.cls-7{fill:#0a274d;}.cls-8{fill:#f8f8f9;}.cls-9{fill:#f7f7f8;}</style></defs><title>New Logo</title><path class="cls-1" d="M1181.37,1199q-304.24,0-608.5.13c-5.07,0-6.17-1.2-6.16-6.2q.24-183.15,0-366.31c0-4.65,1.25-5.61,5.71-5.61q609.51.16,1219,0c4.59,0,5.65,1.16,5.64,5.68q-.19,183.41,0,366.81c0,4.65-1.25,5.61-5.71,5.61Q1486.38,1198.91,1181.37,1199Zm0-18.34q295.71,0,591.43.09c4.33,0,5.93-.72,5.92-5.61q-.24-165.08,0-330.14c0-4.83-1.51-5.64-5.89-5.64q-590.94.15-1181.86,0c-5,0-5.91,1.47-5.9,6.15q.2,164.56,0,329.13c0,5.34,1.58,6.16,6.41,6.16Q886.44,1180.57,1181.39,1180.65Z" transform="translate(-204.95 -820.99)"/><path class="cls-2" d="M400,921.61a88.44,88.44,0,1,1-88.39,88.49A88.47,88.47,0,0,1,400,921.61ZM434,974.93a34.5,34.5,0,0,0-33,23.63c-.78,2.36-2.28,5.58-.06,6.81,2.68,1.49,3.48-2.25,4.72-4,6.69-9.29,19.83-12.51,30.88-7.44,9.79,4.49,16.13,17.76,13.45,28.14-2.63,10.16-8.48,17.13-19.12,19.34-1.51.32-2.49,1-2.56,2.57-.08,1.89,1.27,2.12,2.7,2.1,3.35,0,6.78.32,10-.3,18.23-3.49,30.17-20.63,28-40.77C467.35,989.31,452,974.11,434,974.93Zm-67.69,71.23a25.27,25.27,0,0,0,11.92-2.12c11.07-4.71,18.67-12.56,21.56-24.47.33-1.34.84-3.26-.77-4s-2.59,1-3.5,2.1c-.3.39-.42.91-.7,1.32-6.83,10-20.18,13.43-31.48,8.14-10.29-4.81-16-18-13-29.13,2.64-9.71,8.54-15.92,18.36-18.25,1.63-.39,2.94-.84,2.93-2.74,0-2.33-1.87-2-3.29-2-3.17,0-6.44-.29-9.51.32-18.29,3.66-29.9,20.74-28,40.86C332.4,1032.18,348.5,1046.1,366.34,1046.16Z" transform="translate(-204.95 -820.99)"/><path class="cls-1" d="M240.33,839.19c9.87,0,19.76.31,29.61-.13,4.85-.22,5.95,1.48,5.5,5.81a48.07,48.07,0,0,0,0,9.52c.34,3.73-.61,5.11-4.76,5-13.55-.31-27.1,0-40.65-.2-3.71-.06-5.11.62-5,4.77.3,13.89,0,27.78.18,41.66,0,2.91-.43,4.23-3.75,4a111.4,111.4,0,0,0-13.05,0c-2.52.1-3.45-.5-3.43-3.26q.18-31.87,0-63.75c0-3.07,1.12-3.48,3.76-3.45C219.25,839.27,229.79,839.19,240.33,839.19Z" transform="translate(-204.95 -820.99)"/><path class="cls-1" d="M240.21,1180.9c-10.54,0-21.09-.1-31.63.06-2.8,0-3.64-.71-3.62-3.58q.18-31.62,0-63.25c0-2.76.64-3.8,3.56-3.64,5.32.29,12.31-1.8,15.54.84s.93,10,1,15.29c.16,10,.18,20.08,0,30.12-.07,3.24.78,4.19,4.1,4.14,14-.19,28.11,0,42.16-.16,3.24,0,4.36.76,4.14,4.1-.35,5.15,1.71,11.91-.86,15s-9.69.86-14.81,1C253.26,1181,246.73,1180.9,240.21,1180.9Z" transform="translate(-204.95 -820.99)"/><path class="cls-3" d="M1181.39,1180.65q-295,0-589.93.11c-4.83,0-6.42-.82-6.41-6.16q.29-164.56,0-329.13c0-4.68.87-6.15,5.9-6.15q590.92.2,1181.86,0c4.38,0,5.89.81,5.89,5.64q-.24,165.07,0,330.14c0,4.89-1.59,5.61-5.92,5.61Q1477.11,1180.59,1181.39,1180.65Zm319.14-229.19a182.63,182.63,0,0,0-25,1.43c-6.94.86-14,1.79-20,5.71-7.31,4.72-7.62,12.42-.74,17.74,2.38,1.84,4.84,3.59,7.15,5.52,4,3.3,4.83,7.42,2.84,12.13a34.3,34.3,0,0,1-6.52,10c-2.54,2.73-4.87,2.83-7.56,0-5.09-5.39-7.91-12.08-11.28-18.48-1.93-3.66-2.06-6.86.52-10.75,4.82-7.26,2.62-13.66-5.19-17.72a36.83,36.83,0,0,0-10.23-3.43c-16.9-3.16-33.83-2.77-50.74-.18-6.91,1.06-13.84,2.29-19.87,6.23-4.61,3-7,7.23-6.19,12.76.75,5.21,4,8.32,9.11,9.45,5.54,1.23,9.52,4.66,12.6,9.11,13.29,19.24,24.63,39.69,36.69,59.69q8.49,14.07,17.52,27.79c3.4,5.15,7.82,9.17,14.68,9.1,7.42-.08,11.41-5.06,14.72-10.58,7-11.61,13.58-23.41,20.41-35.09a66.92,66.92,0,0,1,6-9.2c3.49-4.17,7.06-3.89,10.06.71,6.11,9.39,12,18.9,18,28.36,4.38,6.93,8.8,13.84,14.37,19.9,7.69,8.37,14.66,8.52,22.73.53,6.63-6.57,11.1-14.62,15.32-22.8,10.81-21,21.52-42,32.29-63.06,4.71-9.2,9.77-18,21.12-20.44,4.88-1.07,8.42-4.17,8.62-9.42s-2.59-9-7.29-11.44c-4-2-8.26-2.41-12.48-2.79-12.52-1.14-25.08-1.57-37.19,2.68-7.85,2.76-10.42,10.14-6.34,17.44,1,1.85,2.58,3.42,3.57,5.29s2.47,4,1.46,6.51c-2.73,6.84-6,13.41-10.78,19-3.74,4.36-6.76,4.26-10.22-.24-3.69-4.8-5.85-10.46-8.55-15.81-2.09-4.16-1.48-7.3,2.07-10.44,8.2-7.27,5.47-19.2-5.65-22.14C1520.66,951.93,1510.64,951.6,1500.53,951.46Zm-634.71,73.77h28.63c7.94,0,11.94-2.84,14.45-10.43a30.88,30.88,0,0,0,1.34-14.35,51.76,51.76,0,0,0-17.89-32.74c-24.16-20.61-51.6-22.6-79.26-9.67-50.24,23.5-52.26,84.71-16.53,114.76,26.71,22.46,74.67,20.52,99.93-3.71,3.31-3.17,6.15-6.6,7.53-11.06a15.82,15.82,0,0,0-5.56-17c-5.08-3.81-9.08-.69-13.17,2a51.7,51.7,0,0,1-23,7.87c-12,1.31-26.76-7.55-30.39-18-2.08-6-1-7.59,5.32-7.6Q851.52,1025.21,865.82,1025.23Zm431.93,0c10,0,20.1-.06,30.14,0a11.29,11.29,0,0,0,10.08-5.46,22.45,22.45,0,0,0,3.83-12.27c.5-20.63-9.68-35.78-26.26-46.15-24.35-15.23-50-14.5-75-1.44-42.56,22.26-49.39,80.19-13.69,111.92,27,24,75.93,21.64,102.62-4.15,3.68-3.56,6.27-7.86,6.66-13.14.44-6.06-2.2-10.73-7-14.09-4.29-3-8-.42-11.47,2a52.2,52.2,0,0,1-23.37,8.38c-13,1.62-28.31-8-31.29-19.42-1.29-4.92-.47-6.11,4.6-6.14C1277.65,1025.19,1287.7,1025.23,1297.75,1025.23Zm381.74-74.58a38.21,38.21,0,0,0-10.68,1.1c-16.75,3.7-29,13.15-34.23,29.68s-1.68,31.71,11.25,44c7.46,7.12,16.24,12.25,25.33,16.94a55.58,55.58,0,0,1,8.13,4.88c3,2.23,5,5.16,3.12,9.12s-5.29,4.9-9.2,4.6a15.51,15.51,0,0,1-9.68-4.84c-5.72-5.64-11.24-11.47-17-17-3.75-3.63-8.25-5.22-13.33-3s-6.09,6.84-6,11.69c.16,11.45,4.86,21.32,11,30.64,4.28,6.44,10.36,8.65,17.8,7.48a43.52,43.52,0,0,1,11.51-.23c7,.76,13.94,1.77,20.92,2.41,18,1.67,34.28-2.23,47.42-15.44,15.5-15.6,14.7-39.8-1.65-54.4-9.2-8.23-19.81-14.17-30.91-19.34-3.64-1.69-7.29-3.37-10.28-6.15s-4.27-6-2-9.81a8.15,8.15,0,0,1,10.43-3.45c3.31,1.31,6,3.6,8.62,5.93,4.13,3.66,8.12,7.53,12.57,10.76a15.23,15.23,0,0,0,17,1.06c5.8-3.15,7.2-8.61,6.15-14.65a49.28,49.28,0,0,0-16-28.77,12,12,0,0,0-13.56-2.2c-5.61,2.42-11.17,2.56-17.13,1.27A82.09,82.09,0,0,0,1679.49,950.65ZM673.66,1087.54c8.66-.09,20.38-.28,31.89-2.7,9.31-2,14.73-7.6,15.05-15,.3-7.06-3.49-11.53-13.42-14.39-6-1.71-8.18-5.31-8.76-11.15-1.12-11.19-.9-22.39-.75-33.59a28.64,28.64,0,0,1,1-7.44c1-3.46,3.43-4.6,6.5-2.37,2.42,1.76,4.46,4,6.74,6,4.09,3.52,8.39,6.62,14,7.33,16.45,2.1,29.75-5.89,35.5-21.41,6.52-17.63-3.57-37.36-21.2-40.64-13.21-2.47-24,2.27-32.16,12.86-1.13,1.45-2.11,3-3.18,4.51s-2.17,2.71-4.11,2.23c-1.75-.44-2-2-2.3-3.54-.5-3.13-1.11-6.25-1.48-9.4-.61-5-3.32-7.09-8.39-7.24-15-.43-29.11,3.43-43.17,7.86-5.91,1.85-11.74,4-16.83,7.58-9.64,6.84-9,17.87,1.61,22.47,6,2.58,8,6.64,7.85,12.45-.32,12.2-.74,24.4-1.15,36.6-.28,8.21-2.83,14.6-10.18,19.88-10.28,7.4-7.94,19.46,3.79,24.34a38.21,38.21,0,0,0,5.71,1.8C647.53,1087.28,659.05,1087.6,673.66,1087.54ZM967.18,951.76c-5.36,0-10.73-.32-16.06.07-9.14.66-18.37,1.17-27,4.79-6.16,2.59-9.53,6.85-9.18,11.85.43,6,4.21,9.49,9.62,10.83,7.16,1.77,11.38,6.37,14.61,12.61q12.57,24.23,25.46,48.3c7.74,14.38,14.12,29.57,25,42.11,7.1,8.17,16.18,8.66,24,1.08,5-4.86,8.41-10.83,11.57-16.9,12.79-24.58,25.61-49.15,38-73.91,4.46-8.86,9.48-16.49,20-18.54a9.84,9.84,0,0,0,3.52-1.84c6.12-4.34,6-12.11-.26-16.29a23.52,23.52,0,0,0-9.39-3.27c-10-1.66-20-1.21-30-.44a45.07,45.07,0,0,0-13.24,2.63c-8.29,3.28-10.14,10-4.75,17.19a29.12,29.12,0,0,0,2.64,3c3.22,3.23,3.74,6.84,1.92,11a111.05,111.05,0,0,1-9.52,17.6c-3,4.47-6.73,4.8-10.43.9-5.15-5.43-8.25-12.1-10.56-19.14-1-3-.06-5.57,2.16-7.75a52.4,52.4,0,0,0,4.9-5c4.47-5.82,3.2-12.12-3.15-15.65a29.08,29.08,0,0,0-6-2.37C990,951.41,978.54,951.67,967.18,951.76Zm208.69,50.51q0-19.59,0-39.19c0-9.64-2.2-11.74-11.92-11.41a30,30,0,0,0-3,.18,236.21,236.21,0,0,0-52.73,13.78c-5.86,2.29-10.31,6-10.62,12.63-.3,6.43,4,9.86,9.39,12.24,4.39,1.94,6.38,5.36,6.63,10.28.54,10.87,1,21.72,1,32.6,0,11.4-1.45,21.71-12.27,28.92-6.35,4.23-5.23,13.65,1.06,18.54a20.31,20.31,0,0,0,8.7,3.63,172.92,172.92,0,0,0,49.43,2.37c8.2-.71,16.37-1.7,23.42-6.44,8-5.35,8.61-15,.77-20.4-7.54-5.17-10-12-9.88-20.55C1176,1027.06,1175.87,1014.66,1175.87,1002.27ZM1125.54,945c14.69-.22,27.83-2.91,39.66-10.27,6.81-4.24,10.4-10.47,9.18-18.61-1.15-7.67-6.8-11.42-13.66-12.94-19.51-4.31-37.65,0-53.85,11-10.34,7-8.74,21.25,2.11,27.46C1114.43,944.82,1120.4,945.19,1125.54,945Z" transform="translate(-204.95 -820.99)"/><path class="cls-4" d="M434,974.93c18-.82,33.32,14.38,35,30.1,2.16,20.14-9.78,37.28-28,40.77-3.24.62-6.67.25-10,.3-1.43,0-2.78-.21-2.7-2.1.07-1.58,1.05-2.25,2.56-2.57,10.64-2.21,16.49-9.18,19.12-19.34,2.68-10.38-3.66-23.65-13.45-28.14-11.05-5.07-24.19-1.85-30.88,7.44-1.24,1.73-2,5.47-4.72,4-2.22-1.23-.72-4.45.06-6.81A34.5,34.5,0,0,1,434,974.93Z" transform="translate(-204.95 -820.99)"/><path class="cls-4" d="M366.34,1046.16c-17.84-.06-33.94-14-35.46-30-1.91-20.12,9.7-37.2,28-40.86,3.07-.61,6.34-.32,9.51-.32,1.42,0,3.28-.34,3.29,2,0,1.9-1.3,2.35-2.93,2.74-9.82,2.33-15.72,8.54-18.36,18.25-3,11.16,2.7,24.32,13,29.13,11.3,5.29,24.65,1.84,31.48-8.14.28-.41.4-.93.7-1.32.91-1.14,1.75-2.94,3.5-2.1s1.1,2.68.77,4c-2.89,11.91-10.49,19.76-21.56,24.47A25.27,25.27,0,0,1,366.34,1046.16Z" transform="translate(-204.95 -820.99)"/><path class="cls-5" d="M1500.53,951.46c10.11.14,20.13.47,30.08,3.11,11.12,2.94,13.85,14.87,5.65,22.14-3.55,3.14-4.16,6.28-2.07,10.44,2.7,5.35,4.86,11,8.55,15.81,3.46,4.5,6.48,4.6,10.22.24,4.83-5.62,8-12.19,10.78-19,1-2.54-.4-4.52-1.46-6.51s-2.54-3.44-3.57-5.29c-4.08-7.3-1.51-14.68,6.34-17.44,12.11-4.25,24.67-3.82,37.19-2.68,4.22.38,8.53.74,12.48,2.79,4.7,2.45,7.49,6.2,7.29,11.44s-3.74,8.35-8.62,9.42c-11.35,2.48-16.41,11.24-21.12,20.44-10.77,21-21.48,42.07-32.29,63.06-4.22,8.18-8.69,16.23-15.32,22.8-8.07,8-15,7.84-22.73-.53-5.57-6.06-10-13-14.37-19.9-6-9.46-11.9-19-18-28.36-3-4.6-6.57-4.88-10.06-.71a66.92,66.92,0,0,0-6,9.2c-6.83,11.68-13.45,23.48-20.41,35.09-3.31,5.52-7.3,10.5-14.72,10.58-6.86.07-11.28-4-14.68-9.1q-9.06-13.7-17.52-27.79c-12.06-20-23.4-40.45-36.69-59.69-3.08-4.45-7.06-7.88-12.6-9.11-5.07-1.13-8.36-4.24-9.11-9.45-.79-5.53,1.58-9.76,6.19-12.76,6-3.94,13-5.17,19.87-6.23,16.91-2.59,33.84-3,50.74.18a36.83,36.83,0,0,1,10.23,3.43c7.81,4.06,10,10.46,5.19,17.72-2.58,3.89-2.45,7.09-.52,10.75,3.37,6.4,6.19,13.09,11.28,18.48,2.69,2.86,5,2.76,7.56,0a34.3,34.3,0,0,0,6.52-10c2-4.71,1.12-8.83-2.84-12.13-2.31-1.93-4.77-3.68-7.15-5.52-6.88-5.32-6.57-13,.74-17.74,6.09-3.92,13.1-4.85,20-5.71A182.63,182.63,0,0,1,1500.53,951.46Z" transform="translate(-204.95 -820.99)"/><path class="cls-6" d="M865.82,1025.23q-14.31,0-28.63,0c-6.31,0-7.4,1.6-5.32,7.6,3.63,10.47,18.34,19.33,30.39,18a51.7,51.7,0,0,0,23-7.87c4.09-2.67,8.09-5.79,13.17-2a15.82,15.82,0,0,1,5.56,17c-1.38,4.46-4.22,7.89-7.53,11.06-25.26,24.23-73.22,26.17-99.93,3.71-35.73-30-33.71-91.26,16.53-114.76,27.66-12.93,55.1-10.94,79.26,9.67a51.76,51.76,0,0,1,17.89,32.74,30.88,30.88,0,0,1-1.34,14.35c-2.51,7.59-6.51,10.43-14.45,10.43Zm-21.69-26.54c2.34,0,4.69.13,7,0,5.7-.38,7.69-2.75,7.3-8.43-.52-7.62-5.35-13-12.18-13.65-7.6-.68-14.19,4.39-16,12.29-1.55,7,.59,9.66,7.79,9.82C840.11,998.73,842.12,998.69,844.13,998.69Z" transform="translate(-204.95 -820.99)"/><path class="cls-6" d="M1297.75,1025.23c-10,0-20.1,0-30.14,0-5.07,0-5.89,1.22-4.6,6.14,3,11.4,18.33,21,31.29,19.42a52.2,52.2,0,0,0,23.37-8.38c3.47-2.37,7.18-5,11.47-2,4.81,3.36,7.45,8,7,14.09-.39,5.28-3,9.58-6.66,13.14-26.69,25.79-75.62,28.13-102.62,4.15-35.7-31.73-28.87-89.66,13.69-111.92,25-13.06,50.63-13.79,75,1.44,16.58,10.37,26.76,25.52,26.26,46.15a22.45,22.45,0,0,1-3.83,12.27,11.29,11.29,0,0,1-10.08,5.46C1317.85,1025.17,1307.8,1025.23,1297.75,1025.23Zm-22.33-26.36v-.18c2.34,0,4.67.11,7,0,6.18-.36,8.53-3.41,7.54-9.61-1.4-8.74-7.71-13.55-16.22-12.36-6.75.95-13,9.43-12.35,16.56.27,2.89,1.69,4.71,4.58,5C1269.11,998.61,1272.27,998.68,1275.42,998.87Z" transform="translate(-204.95 -820.99)"/><path class="cls-6" d="M1679.49,950.65a82.09,82.09,0,0,1,19.66,2.26c6,1.29,11.52,1.15,17.13-1.27a12,12,0,0,1,13.56,2.2,49.28,49.28,0,0,1,16,28.77c1.05,6-.35,11.5-6.15,14.65a15.23,15.23,0,0,1-17-1.06c-4.45-3.23-8.44-7.1-12.57-10.76-2.64-2.33-5.31-4.62-8.62-5.93A8.15,8.15,0,0,0,1691,983c-2.28,3.85-1,7,2,9.81s6.64,4.46,10.28,6.15c11.1,5.17,21.71,11.11,30.91,19.34,16.35,14.6,17.15,38.8,1.65,54.4-13.14,13.21-29.42,17.11-47.42,15.44-7-.64-13.94-1.65-20.92-2.41a43.52,43.52,0,0,0-11.51.23c-7.44,1.17-13.52-1-17.8-7.48-6.19-9.32-10.89-19.19-11-30.64-.07-4.85.91-9.48,6-11.69s9.58-.61,13.33,3c5.77,5.57,11.29,11.4,17,17a15.51,15.51,0,0,0,9.68,4.84c3.91.3,7.38-.7,9.2-4.6s-.17-6.89-3.12-9.12a55.58,55.58,0,0,0-8.13-4.88c-9.09-4.69-17.87-9.82-25.33-16.94-12.93-12.33-16.52-27.39-11.25-44s17.48-26,34.23-29.68A38.21,38.21,0,0,1,1679.49,950.65Z" transform="translate(-204.95 -820.99)"/><path class="cls-6" d="M673.66,1087.54c-14.61.06-26.13-.26-37.44-3a38.21,38.21,0,0,1-5.71-1.8c-11.73-4.88-14.07-16.94-3.79-24.34,7.35-5.28,9.9-11.67,10.18-19.88.41-12.2.83-24.4,1.15-36.6.14-5.81-1.88-9.87-7.85-12.45-10.65-4.6-11.25-15.63-1.61-22.47,5.09-3.6,10.92-5.73,16.83-7.58,14.06-4.43,28.19-8.29,43.17-7.86,5.07.15,7.78,2.21,8.39,7.24.37,3.15,1,6.27,1.48,9.4.25,1.52.55,3.1,2.3,3.54,1.94.48,3.1-.82,4.11-2.23s2-3.06,3.18-4.51c8.19-10.59,19-15.33,32.16-12.86,17.63,3.28,27.72,23,21.2,40.64-5.75,15.52-19,23.51-35.5,21.41-5.6-.71-9.9-3.81-14-7.33-2.28-2-4.32-4.23-6.74-6-3.07-2.23-5.5-1.09-6.5,2.37a28.64,28.64,0,0,0-1,7.44c-.15,11.2-.37,22.4.75,33.59.58,5.84,2.79,9.44,8.76,11.15,9.93,2.86,13.72,7.33,13.42,14.39-.32,7.44-5.74,13.08-15.05,15C694,1087.26,682.32,1087.45,673.66,1087.54Z" transform="translate(-204.95 -820.99)"/><path class="cls-6" d="M967.18,951.76c11.36-.09,22.77-.35,33.83,2.89a29.08,29.08,0,0,1,6,2.37c6.35,3.53,7.62,9.83,3.15,15.65a52.4,52.4,0,0,1-4.9,5c-2.22,2.18-3.13,4.77-2.16,7.75,2.31,7,5.41,13.71,10.56,19.14,3.7,3.9,7.4,3.57,10.43-.9a111.05,111.05,0,0,0,9.52-17.6c1.82-4.16,1.3-7.77-1.92-11a29.12,29.12,0,0,1-2.64-3c-5.39-7.17-3.54-13.91,4.75-17.19a45.07,45.07,0,0,1,13.24-2.63c10-.77,20-1.22,30,.44a23.52,23.52,0,0,1,9.39,3.27c6.27,4.18,6.38,12,.26,16.29a9.84,9.84,0,0,1-3.52,1.84c-10.55,2.05-15.57,9.68-20,18.54-12.44,24.76-25.26,49.33-38,73.91-3.16,6.07-6.6,12-11.57,16.9-7.77,7.58-16.85,7.09-24-1.08-10.88-12.54-17.26-27.73-25-42.11q-12.95-24-25.46-48.3c-3.23-6.24-7.45-10.84-14.61-12.61-5.41-1.34-9.19-4.83-9.62-10.83-.35-5,3-9.26,9.18-11.85,8.64-3.62,17.87-4.13,27-4.79C956.45,951.44,961.82,951.76,967.18,951.76Z" transform="translate(-204.95 -820.99)"/><path class="cls-7" d="M1175.87,1002.27c0,12.39.15,24.79,0,37.18-.14,8.6,2.34,15.38,9.88,20.55,7.84,5.37,7.19,15-.77,20.4-7,4.74-15.22,5.73-23.42,6.44a172.92,172.92,0,0,1-49.43-2.37,20.31,20.31,0,0,1-8.7-3.63c-6.29-4.89-7.41-14.31-1.06-18.54,10.82-7.21,12.23-17.52,12.27-28.92,0-10.88-.44-21.73-1-32.6-.25-4.92-2.24-8.34-6.63-10.28-5.43-2.38-9.69-5.81-9.39-12.24.31-6.66,4.76-10.34,10.62-12.63A236.21,236.21,0,0,1,1161,951.85a30,30,0,0,1,3-.18c9.72-.33,11.92,1.77,11.92,11.41Q1175.89,982.67,1175.87,1002.27Z" transform="translate(-204.95 -820.99)"/><path class="cls-5" d="M1125.54,945c-5.14.15-11.11-.22-16.56-3.34-10.85-6.21-12.45-20.45-2.11-27.46,16.2-11,34.34-15.33,53.85-11,6.86,1.52,12.51,5.27,13.66,12.94,1.22,8.14-2.37,14.37-9.18,18.61C1153.37,942.13,1140.23,944.82,1125.54,945Z" transform="translate(-204.95 -820.99)"/><path class="cls-8" d="M844.13,998.69c-2,0-4,0-6,0-7.2-.16-9.34-2.87-7.79-9.82,1.77-7.9,8.36-13,16-12.29,6.83.62,11.66,6,12.18,13.65.39,5.68-1.6,8-7.3,8.43C848.82,998.82,846.47,998.69,844.13,998.69Z" transform="translate(-204.95 -820.99)"/><path class="cls-9" d="M1275.42,998.87c-3.15-.19-6.31-.26-9.44-.59-2.89-.31-4.31-2.13-4.58-5-.69-7.13,5.6-15.61,12.35-16.56,8.51-1.19,14.82,3.62,16.22,12.36,1,6.2-1.36,9.25-7.54,9.61-2.33.13-4.66,0-7,0Z" transform="translate(-204.95 -820.99)"/></svg>